<svg width="240" height="240" viewBox="0 0 240 240" fill="none" xmlns="http://www.w3.org/2000/svg">
<circle cx="120" cy="120" r="120" fill="#F4F8FF"/>
<path fill-rule="evenodd" clip-rule="evenodd" d="M109.333 91.3333H98.6666C94.6159 91.3333 91.3333 94.616 91.3333 98.6666V109.333C91.3333 110.437 92.2293 111.333 93.3333 111.333C94.4373 111.333 95.3333 110.437 95.3333 109.333V98.6666C95.3333 96.8266 96.8266 95.3333 98.6666 95.3333H109.333C110.437 95.3333 111.333 94.4373 111.333 93.3333C111.333 92.2293 110.437 91.3333 109.333 91.3333Z" fill="#247CFF"/>
<path fill-rule="evenodd" clip-rule="evenodd" d="M109.333 144.667H98.6666C96.8266 144.667 95.3333 143.173 95.3333 141.333V130.667C95.3333 129.563 94.4373 128.667 93.3333 128.667C92.2293 128.667 91.3333 129.563 91.3333 130.667V141.333C91.3333 145.384 94.6159 148.667 98.6666 148.667H109.333C110.437 148.667 111.333 147.771 111.333 146.667C111.333 145.563 110.437 144.667 109.333 144.667Z" fill="#247CFF"/>
<path fill-rule="evenodd" clip-rule="evenodd" d="M148.667 109.333V98.6666C148.667 94.616 145.384 91.3333 141.333 91.3333H130.667C129.563 91.3333 128.667 92.2293 128.667 93.3333C128.667 94.4373 129.563 95.3333 130.667 95.3333H141.333C143.173 95.3333 144.667 96.8266 144.667 98.6666V109.333C144.667 110.437 145.563 111.333 146.667 111.333C147.771 111.333 148.667 110.437 148.667 109.333Z" fill="#247CFF"/>
<path fill-rule="evenodd" clip-rule="evenodd" d="M144.667 130.667V141.333C144.667 143.173 143.173 144.667 141.333 144.667H130.667C129.563 144.667 128.667 145.563 128.667 146.667C128.667 147.771 129.563 148.667 130.667 148.667H141.333C145.384 148.667 148.667 145.384 148.667 141.333V130.667C148.667 129.563 147.771 128.667 146.667 128.667C145.563 128.667 144.667 129.563 144.667 130.667Z" fill="#247CFF"/>
<path fill-rule="evenodd" clip-rule="evenodd" d="M128.667 106.205V108.872C128.667 109.976 129.563 110.872 130.667 110.872C131.771 110.872 132.667 109.976 132.667 108.872V106.205C132.667 105.101 131.771 104.205 130.667 104.205C129.563 104.205 128.667 105.101 128.667 106.205Z" fill="#247CFF"/>
<path fill-rule="evenodd" clip-rule="evenodd" d="M107.333 106.205V108.872C107.333 109.976 108.229 110.872 109.333 110.872C110.437 110.872 111.333 109.976 111.333 108.872V106.205C111.333 105.101 110.437 104.205 109.333 104.205C108.229 104.205 107.333 105.101 107.333 106.205Z" fill="#247CFF"/>
<path fill-rule="evenodd" clip-rule="evenodd" d="M118.144 112.691L120.32 118.133L118.587 119.867C117.805 120.648 117.805 121.915 118.587 122.696C119.365 123.477 120.635 123.477 121.413 122.696L124.08 120.029C124.645 119.464 124.821 118.616 124.523 117.872L121.856 111.205C121.448 110.181 120.283 109.68 119.256 110.091C118.232 110.501 117.733 111.667 118.144 112.691Z" fill="#247CFF"/>
<path fill-rule="evenodd" clip-rule="evenodd" d="M109.674 132.352L111.069 133.149C116.602 136.312 123.397 136.312 128.93 133.149L130.325 132.352C131.285 131.803 131.618 130.581 131.069 129.621C130.522 128.664 129.298 128.331 128.341 128.877L126.946 129.675C122.642 132.136 117.357 132.136 113.053 129.675L111.658 128.877C110.701 128.331 109.477 128.664 108.93 129.621C108.381 130.581 108.714 131.803 109.674 132.352Z" fill="#247CFF"/>
</svg>
