<svg width="46" height="46" viewBox="0 0 46 46" fill="none" xmlns="http://www.w3.org/2000/svg">
<rect width="46" height="46" rx="23" fill="#F5F5F5"/>
<path d="M35 23C35 16.3719 29.6281 11 23 11C16.3719 11 11 16.3719 11 23C11 28.9902 15.3856 33.9547 21.1259 34.8552V26.4716H18.0814V23H21.1259V20.3567C21.1259 17.3516 22.9142 15.6884 25.6564 15.6884C26.9713 15.6884 28.3456 15.9252 28.3456 15.9252V18.8773H26.8334C25.3409 18.8773 24.8806 19.8045 24.8806 20.7514V23H28.2078L27.6753 26.4716H24.8806V34.8552C30.6144 33.9547 35 28.9902 35 23Z" fill="#1877F2"/>
<path d="M27.6683 26.4715L28.2012 23H24.874V20.7514C24.874 19.8045 25.3409 18.8773 26.8269 18.8773H28.339V15.9251C28.339 15.9251 26.9647 15.6884 25.6498 15.6884C22.9081 15.6884 21.1194 17.352 21.1194 20.3567V23H18.0748V26.4715H21.1194V34.8551C21.7311 34.9536 22.3555 35 22.9934 35C23.6314 35 24.2558 34.9475 24.8675 34.8551V26.4715H27.6683Z" fill="white"/>
</svg>
